<svg class="border shadow-md" viewBox="0 0 1120.1422222222222 630.08" style="width: 1120.14px; height: 630.08px;" xmlns="http://www.w3.org/2000/svg" preserveAspectRatio="none"><rect class="bg" id="bg" x="0" y="0" width="1120.1422222222222" height="630.08" fill="#ffffff"></rect><g transform="rotate(0 560.0711111111111 315.04)"><path id="-1" d="M -660.07 -33.01 S -340.04 -73.01
            0.00 -33.01 320.04 -73.01
            660.07 -33.01 893.14 -72.01
            1320.14 -33.01 1521.21 -81.01
            1980.21 -33.01 h 110 V 830.08 H -660.07 Z" fill="#1BA4FF"></path><path id="0" d="M -660.07 30.00 S -340.04 -28.00
            0.00 30.00 286.07 -21.00
            660.07 30.00 980.11 -1.50
            1320.14 30.00 1640.18 -20.00
            1980.21 30.00 h 110 V 830.08 H -660.07 Z" fill="#1c97f2"></path><path id="1" d="M -660.07 93.01 S -340.04 61.50
            0.00 93.01 79.07 33.01
            660.07 93.01 980.11 57.01
            1320.14 93.01 1640.18 61.50
            1980.21 93.01 h 110 V 830.08 H -660.07 Z" fill="#1d8ae5"></path><path id="2" d="M -660.07 156.02 S -340.04 98.02
            0.00 156.02 320.04 118.02
            660.07 156.02 954.14 124.51
            1320.14 156.02 1640.18 124.51
            1980.21 156.02 h 110 V 830.08 H -660.07 Z" fill="#1e7dd8"></path><path id="3" d="M -660.07 219.02 S -340.04 187.52
            0.00 219.02 83.07 176.02
            660.07 219.02 980.11 163.02
            1320.14 219.02 1529.21 171.02
            1980.21 219.02 h 110 V 830.08 H -660.07 Z" fill="#1f70cb"></path><path id="4" d="M -660.07 282.03 S -340.04 243.03
            0.00 282.03 -0.93 250.53
            660.07 282.03 980.11 250.03
            1320.14 282.03 1640.18 248.03
            1980.21 282.03 h 110 V 830.08 H -660.07 Z" fill="#2063be"></path><path id="5" d="M -660.07 345.04 S -610.00 313.54
            0.00 345.04 320.04 313.54
            660.07 345.04 980.11 313.54
            1320.14 345.04 1640.18 313.54
            1980.21 345.04 h 110 V 830.08 H -660.07 Z" fill="#2156b1"></path><path id="6" d="M -660.07 408.05 S -340.04 350.05
            0.00 408.05 320.04 365.05
            660.07 408.05 980.11 376.54
            1320.14 408.05 1640.18 358.05
            1980.21 408.05 h 110 V 830.08 H -660.07 Z" fill="#2249a4"></path><path id="7" d="M -660.07 471.06 S -600.00 432.06
            0.00 471.06 320.04 412.06
            660.07 471.06 756.14 434.06
            1320.14 471.06 1640.18 430.06
            1980.21 471.06 h 110 V 830.08 H -660.07 Z" fill="#233c97"></path><path id="8" d="M -660.07 534.06 S -340.04 479.06
            0.00 534.06 320.04 496.06
            660.07 534.06 980.11 501.06
            1320.14 534.06 1327.21 477.06
            1980.21 534.06 h 110 V 830.08 H -660.07 Z" fill="#242f8a"></path><path id="9" d="M -660.07 597.07 S -340.04 565.57
            0.00 597.07 320.04 543.07
            660.07 597.07 920.14 552.07
            1320.14 597.07 1640.18 543.07
            1980.21 597.07 h 110 V 830.08 H -660.07 Z" fill="#25227d"></path></g></svg>